<?xml version="1.0" encoding="utf-8"?>
<!-- Generator: Adobe Illustrator 16.0.0, SVG Export Plug-In . SVG Version: 6.00 Build 0)  -->
<!DOCTYPE svg PUBLIC "-//W3C//DTD SVG 1.1//EN" "http://www.w3.org/Graphics/SVG/1.1/DTD/svg11.dtd">
<svg version="1.1" id="Layer_1" xmlns="http://www.w3.org/2000/svg" xmlns:xlink="http://www.w3.org/1999/xlink" x="0px" y="0px"
	 width="264.098px" height="29.353px" viewBox="0 0 264.098 29.353" enable-background="new 0 0 264.098 29.353"
	 xml:space="preserve">
<path fill-rule="evenodd" clip-rule="evenodd" fill="#FFFFFF" d="M260.125,14.978l-8.31,10.959h-3.971V9.912h3.971v10.693
	l8.31-10.693h3.974v16.025h-3.974V14.978L260.125,14.978z M238.191,25.937h-3.973V9.912h10.691v3.112h-6.719V25.937L238.191,25.937z
	 M220.472,23.056h3.013c0.994,0,1.799-0.183,2.416-0.547c0.62-0.363,0.928-1.042,0.928-2.036c0-0.485-0.086-0.895-0.265-1.224
	c-0.179-0.331-0.421-0.59-0.728-0.777c-0.31-0.189-0.668-0.321-1.077-0.399c-0.407-0.075-0.854-0.116-1.339-0.116h-2.948V23.056
	L220.472,23.056z M220.472,9.912v5.165h3.753c1.195,0,2.215,0.14,3.055,0.415c0.841,0.275,1.523,0.657,2.042,1.143
	c0.523,0.484,0.898,1.059,1.132,1.721c0.232,0.663,0.349,1.369,0.349,2.118c0,0.773-0.138,1.489-0.415,2.152
	c-0.278,0.663-0.687,1.237-1.229,1.722s-1.21,0.873-2.008,1.158c-0.797,0.289-1.725,0.432-2.785,0.432h-7.864V9.912H220.472
	L220.472,9.912z M200.627,25.937h-3.973V9.912h3.973v6.16h7.051v-6.16h3.974v16.025h-3.974v-6.754h-7.051V25.937L200.627,25.937z
	 M188.958,16.402c-0.021-1.158-0.381-2.125-1.075-2.904c-0.695-0.778-1.705-1.169-3.031-1.169c-0.638,0-1.224,0.114-1.753,0.334
	c-0.529,0.224-0.992,0.517-1.391,0.886c-0.396,0.366-0.711,0.8-0.943,1.301c-0.23,0.5-0.369,1.018-0.414,1.551H188.958
	L188.958,16.402z M192.732,17.825c0,0.179,0,0.364,0,0.563s-0.011,0.398-0.032,0.596h-12.383c0.022,0.595,0.165,1.158,0.432,1.689
	c0.264,0.529,0.611,0.982,1.043,1.357c0.431,0.374,0.92,0.674,1.474,0.895c0.549,0.221,1.146,0.328,1.786,0.328
	c0.994,0,1.854-0.207,2.583-0.628c0.728-0.421,1.29-0.927,1.687-1.522l2.815,1.887c-0.84,1.147-1.858,2.004-3.063,2.564
	c-1.201,0.563-2.554,0.846-4.055,0.846c-1.189,0-2.311-0.199-3.359-0.596c-1.051-0.398-1.959-0.961-2.731-1.688
	s-1.379-1.611-1.821-2.648c-0.441-1.037-0.662-2.206-0.662-3.511c0-1.258,0.215-2.411,0.646-3.459
	c0.431-1.048,1.025-1.948,1.785-2.697c0.763-0.751,1.651-1.331,2.668-1.738c1.013-0.409,2.117-0.614,3.308-0.614
	c1.215,0,2.306,0.205,3.279,0.614c0.97,0.407,1.8,0.976,2.483,1.703c0.683,0.73,1.207,1.605,1.571,2.632
	C192.548,15.425,192.732,16.566,192.732,17.825L192.732,17.825z M164.243,15.672l-2.584,7.085h6.322l-2.88-8.34L164.243,15.672
	L164.243,15.672z M158.381,29.353h-3.41v-6.596h2.584l5.129-12.845h4.502l4.77,12.845h2.748v6.596h-3.412v-3.416h-12.91V29.353
	L158.381,29.353z M111.234,9.912h14.168v3.147h-5.197v12.878h-3.974V13.059h-4.997V9.912L111.234,9.912z M97.292,25.937h-3.971
	V9.912h3.971v6.16h7.051v-6.16h3.973v16.025h-3.973v-6.754h-7.051V25.937L97.292,25.937z M85.625,16.402
	c-0.024-1.158-0.383-2.125-1.078-2.904c-0.695-0.778-1.705-1.169-3.028-1.169c-0.641,0-1.226,0.114-1.753,0.334
	c-0.531,0.224-0.994,0.517-1.39,0.886c-0.398,0.366-0.714,0.8-0.946,1.301c-0.231,0.5-0.369,1.018-0.412,1.551H85.625L85.625,16.402
	z M89.396,17.825c0,0.179,0,0.364,0,0.563s-0.011,0.398-0.033,0.596H76.982c0.024,0.595,0.167,1.158,0.431,1.689
	c0.267,0.529,0.614,0.982,1.042,1.357c0.431,0.374,0.921,0.674,1.474,0.895c0.553,0.221,1.148,0.328,1.789,0.328
	c0.992,0,1.854-0.207,2.581-0.628s1.291-0.927,1.689-1.522L88.8,22.99c-0.838,1.147-1.859,2.004-3.061,2.564
	c-1.204,0.563-2.556,0.846-4.057,0.846c-1.191,0-2.311-0.199-3.359-0.596c-1.048-0.398-1.958-0.961-2.732-1.688
	c-0.771-0.728-1.379-1.611-1.818-2.648c-0.442-1.037-0.663-2.206-0.663-3.511c0-1.258,0.215-2.411,0.644-3.459
	c0.431-1.048,1.026-1.948,1.789-2.697c0.762-0.751,1.649-1.331,2.665-1.738c1.016-0.409,2.12-0.614,3.311-0.614
	c1.212,0,2.307,0.205,3.276,0.614c0.973,0.407,1.799,0.976,2.484,1.703c0.684,0.73,1.21,1.605,1.573,2.632
	C89.215,15.425,89.396,16.566,89.396,17.825L89.396,17.825z M24.593,3.799v22.138h-4.371V10.189l-7.116,11.443h-0.809h-0.809
	L4.371,10.189v15.748H0V3.799h5.006l7.29,11.774l7.29-11.774H24.593L24.593,3.799z M53.64,9.912l6.059,7.25l5.959-7.25h3.475v16.025
	h-3.971V15.476l-5.033,6.555h-0.926l-5.065-6.455v10.361h-3.974V9.912H53.64L53.64,9.912z M37.42,22.384
	c-2.628,0-4.758-2.13-4.758-4.758c0-2.627,2.13-4.758,4.758-4.758s4.758,2.13,4.758,4.758C42.178,20.254,40.048,22.384,37.42,22.384
	L37.42,22.384z M37.42,8.854c-4.846,0-8.773,3.928-8.773,8.773c0,4.846,3.928,8.773,8.773,8.773c4.845,0,8.773-3.928,8.773-8.773
	C46.193,12.782,42.266,8.854,37.42,8.854L37.42,8.854z M142.745,3.88l0.804-3.495c-2.314-0.535-4.798-0.511-7.088,0.058l0.862,3.48
	C139.075,3.492,140.973,3.475,142.745,3.88L142.745,3.88z M147.825,16.996c0-4.319-3.502-7.82-7.82-7.82s-7.819,3.501-7.819,7.82
	c0,4.318,3.501,7.818,7.819,7.818S147.825,21.314,147.825,16.996L147.825,16.996z M151.735,16.996
	c0,6.478-5.253,11.729-11.73,11.729c-6.479,0-11.729-5.251-11.729-11.729c0-6.479,5.25-11.73,11.729-11.73
	C146.482,5.266,151.735,10.517,151.735,16.996L151.735,16.996z M144.351,12.991l-2.112,4.87c-0.121,0.3-0.301,0.576-0.537,0.811
	c-0.457,0.459-1.065,0.711-1.713,0.711c-0.648,0-1.258-0.252-1.716-0.711c-0.458-0.457-0.71-1.066-0.71-1.714
	s0.252-1.257,0.71-1.715c0.236-0.235,0.513-0.416,0.812-0.536l0,0l4.873-2.109c0.039-0.017,0.078-0.024,0.119-0.024
	c0.078,0,0.154,0.03,0.211,0.088C144.375,12.748,144.399,12.879,144.351,12.991z"/>
</svg>
