<?xml version="1.0" encoding="utf-8"?>
<!-- Generator: Adobe Illustrator 16.0.0, SVG Export Plug-In . SVG Version: 6.00 Build 0)  -->
<!DOCTYPE svg PUBLIC "-//W3C//DTD SVG 1.1//EN" "http://www.w3.org/Graphics/SVG/1.1/DTD/svg11.dtd">
<svg version="1.1" id="Слой_1" xmlns="http://www.w3.org/2000/svg" xmlns:xlink="http://www.w3.org/1999/xlink" x="0px" y="0px"
	 width="325.078px" height="157.823px" viewBox="0 0 325.078 157.823" enable-background="new 0 0 325.078 157.823"
	 xml:space="preserve">
<path display="none" fill="#FFFFFF" stroke="#000000" stroke-width="0.25" stroke-miterlimit="10" d="M455.296,0.125
	c-20.455,0-37.035,16.582-37.035,37.036c0,20.454,16.58,37.035,37.035,37.035c20.454,0,37.035-16.582,37.035-37.035
	C492.332,16.707,475.75,0.125,455.296,0.125z M455.296,61.849c-13.636,0-24.69-11.054-24.69-24.688
	c0-13.637,11.055-24.692,24.69-24.692s24.69,11.055,24.69,24.692C479.987,50.795,468.932,61.849,455.296,61.849z"/>
<path display="none" fill="#FFFFFF" stroke="#000000" stroke-width="0.25" stroke-miterlimit="10" d="M385.392,24.518l-6.669,15.375
	c-0.38,0.947-0.948,1.818-1.692,2.562c-1.445,1.446-3.368,2.242-5.413,2.242s-3.968-0.796-5.414-2.242
	c-1.445-1.446-2.242-3.369-2.242-5.414c0-2.045,0.797-3.968,2.242-5.414c0.744-0.743,1.614-1.312,2.562-1.691l0.001,0l15.386-6.658
	c0.121-0.052,0.249-0.078,0.375-0.078c0.245,0,0.486,0.096,0.667,0.277C385.468,23.75,385.546,24.163,385.392,24.518z
	 M408.705,37.161c0,20.454-16.581,37.035-37.035,37.035c-20.456,0-37.036-16.582-37.036-37.035c0-20.454,16.58-37.036,37.036-37.036
	C392.124,0.125,408.705,16.707,408.705,37.161z M396.36,37.161c0-13.637-11.055-24.692-24.69-24.692s-24.69,11.055-24.69,24.692
	c0,13.634,11.055,24.688,24.69,24.688S396.36,50.795,396.36,37.161z M380.324-4.25l2.535-11.032
	c-7.307-1.688-15.149-1.616-22.38,0.183l2.723,10.99C368.73-5.475,374.727-5.531,380.324-4.25z"/>
<path fill="#FFFFFF" d="M288.042,0.125c-20.455,0-37.035,16.582-37.035,37.036c0,20.454,16.58,37.035,37.035,37.035
	c20.454,0,37.036-16.582,37.036-37.035C325.078,16.707,308.496,0.125,288.042,0.125z M288.042,61.849
	c-13.635,0-24.69-11.054-24.69-24.688c0-13.637,11.055-24.692,24.69-24.692c13.636,0,24.69,11.055,24.69,24.692
	C312.732,50.795,301.677,61.849,288.042,61.849z"/>
<path fill="#FFFFFF" d="M204.415,0.125c-20.455,0-37.035,16.582-37.035,37.036c0,20.454,16.58,37.035,37.035,37.035
	c20.454,0,37.036-16.582,37.036-37.035C241.45,16.707,224.869,0.125,204.415,0.125z M204.415,61.849
	c-13.635,0-24.69-11.054-24.69-24.688c0-13.637,11.055-24.692,24.69-24.692c13.636,0,24.69,11.055,24.69,24.692
	C229.105,50.795,218.05,61.849,204.415,61.849z"/>
<path fill="#FFFFFF" d="M120.788,0.125c-20.455,0-37.035,16.582-37.035,37.036c0,20.454,16.58,37.035,37.035,37.035
	c20.454,0,37.035-16.582,37.035-37.035C157.823,16.707,141.242,0.125,120.788,0.125z M120.788,61.849
	c-13.635,0-24.69-11.054-24.69-24.688c0-13.637,11.055-24.692,24.69-24.692c13.636,0,24.69,11.055,24.69,24.692
	C145.478,50.795,134.423,61.849,120.788,61.849z"/>
<path fill="#FFFFFF" d="M37.161,0.125c-20.455,0-37.036,16.582-37.036,37.036c0,20.454,16.581,37.035,37.036,37.035
	c20.454,0,37.035-16.582,37.035-37.035C74.196,16.707,57.615,0.125,37.161,0.125z M37.161,61.849
	c-13.636,0-24.69-11.054-24.69-24.688c0-13.637,11.054-24.692,24.69-24.692s24.69,11.055,24.69,24.692
	C61.851,50.795,50.796,61.849,37.161,61.849z"/>
<path display="none" fill="#FFFFFF" stroke="#000000" stroke-width="0.25" stroke-miterlimit="10" d="M538.923,0.125
	c-20.455,0-37.035,16.582-37.035,37.036c0,20.454,16.58,37.035,37.035,37.035c20.454,0,37.035-16.582,37.035-37.035
	C575.958,16.707,559.377,0.125,538.923,0.125z M538.923,61.849c-13.635,0-24.689-11.054-24.689-24.688
	c0-13.637,11.055-24.692,24.689-24.692c13.636,0,24.69,11.055,24.69,24.692C563.614,50.795,552.559,61.849,538.923,61.849z"/>
<path display="none" fill="#FFFFFF" stroke="#000000" stroke-width="0.25" stroke-miterlimit="10" d="M455.296,83.752
	c-20.455,0-37.035,16.581-37.035,37.035s16.58,37.035,37.035,37.035c20.454,0,37.035-16.581,37.035-37.035
	S475.75,83.752,455.296,83.752z M455.296,145.476c-13.636,0-24.69-11.055-24.69-24.688c0-13.637,11.055-24.691,24.69-24.691
	s24.69,11.055,24.69,24.691C479.987,134.421,468.932,145.476,455.296,145.476z"/>
<path display="none" fill="#FFFFFF" stroke="#000000" stroke-width="0.25" stroke-miterlimit="10" d="M371.669,83.752
	c-20.456,0-37.036,16.581-37.036,37.035s16.58,37.035,37.036,37.035c20.454,0,37.035-16.581,37.035-37.035
	S392.124,83.752,371.669,83.752z M371.669,145.476c-13.636,0-24.69-11.054-24.69-24.688c0-13.637,11.055-24.691,24.69-24.691
	s24.69,11.055,24.69,24.691C396.36,134.422,385.305,145.476,371.669,145.476z"/>
<path fill="#FFFFFF" d="M288.042,83.752c-20.455,0-37.035,16.581-37.035,37.035s16.58,37.035,37.035,37.035
	c20.454,0,37.036-16.581,37.036-37.035S308.496,83.752,288.042,83.752z M288.042,145.476c-13.635,0-24.69-11.055-24.69-24.688
	c0-13.637,11.055-24.691,24.69-24.691c13.636,0,24.69,11.055,24.69,24.691C312.732,134.421,301.677,145.476,288.042,145.476z"/>
<path fill="#FFFFFF" d="M204.415,83.752c-20.455,0-37.035,16.581-37.035,37.035s16.58,37.035,37.035,37.035
	c20.454,0,37.036-16.581,37.036-37.035S224.869,83.752,204.415,83.752z M204.415,145.476c-13.635,0-24.69-11.055-24.69-24.688
	c0-13.637,11.055-24.691,24.69-24.691c13.636,0,24.69,11.055,24.69,24.691C229.105,134.421,218.05,145.476,204.415,145.476z"/>
<path fill="#FFFFFF" d="M120.788,83.752c-20.455,0-37.035,16.581-37.035,37.035s16.58,37.035,37.035,37.035
	c20.454,0,37.035-16.581,37.035-37.035S141.242,83.752,120.788,83.752z M120.788,145.476c-13.635,0-24.69-11.055-24.69-24.688
	c0-13.637,11.055-24.691,24.69-24.691c13.636,0,24.69,11.055,24.69,24.691C145.478,134.421,134.423,145.476,120.788,145.476z"/>
<path fill="#FFFFFF" d="M37.161,83.752c-20.455,0-37.036,16.581-37.036,37.035s16.581,37.035,37.036,37.035
	c20.454,0,37.035-16.581,37.035-37.035S57.615,83.752,37.161,83.752z M37.161,145.476c-13.636,0-24.69-11.055-24.69-24.688
	c0-13.637,11.054-24.691,24.69-24.691s24.69,11.055,24.69,24.691C61.851,134.421,50.796,145.476,37.161,145.476z"/>
<path display="none" fill="#FFFFFF" stroke="#000000" stroke-width="0.25" stroke-miterlimit="10" d="M538.923,83.752
	c-20.455,0-37.035,16.581-37.035,37.035s16.58,37.035,37.035,37.035c20.454,0,37.035-16.581,37.035-37.035
	S559.377,83.752,538.923,83.752z M538.923,145.476c-13.635,0-24.689-11.055-24.689-24.688c0-13.637,11.055-24.691,24.689-24.691
	c13.636,0,24.69,11.055,24.69,24.691C563.614,134.421,552.559,145.476,538.923,145.476z"/>
</svg>
